<svg width="29" height="26" viewBox="0 0 29 26" fill="none" xmlns="http://www.w3.org/2000/svg">
<path d="M10.5 11.859L13.1667 14.5257L19.1667 8.52572M14.4909 4.04014C11.8251 0.923583 7.37968 0.0852395 4.03961 2.93907C0.699546 5.79289 0.229311 10.5644 2.85228 13.9396C4.83347 16.489 10.4617 21.607 13.0974 23.9589C13.5819 24.3912 13.8241 24.6074 14.1078 24.6925C14.3541 24.7664 14.6277 24.7664 14.874 24.6925C15.1577 24.6074 15.3999 24.3912 15.8844 23.9589C18.52 21.607 24.1483 16.489 26.1295 13.9396C28.7525 10.5644 28.3396 5.76288 24.9422 2.93907C21.5447 0.115259 17.1567 0.923583 14.4909 4.04014Z" stroke="#6733B5" stroke-width="2" stroke-linecap="round" stroke-linejoin="round"/>
</svg>
