<svg width="29" height="30" viewBox="0 0 29 30" fill="none" xmlns="http://www.w3.org/2000/svg">
<path d="M11.8334 22.7371V25.859C11.8334 27.3318 13.0273 28.5257 14.5 28.5257C15.9728 28.5257 17.1667 27.3318 17.1667 25.859V22.7371M14.5 1.85901V3.19234M2.50002 15.1923H1.16669M5.83335 6.52568L5.03322 5.72555M23.1667 6.52568L23.967 5.72555M27.8334 15.1923H26.5M22.5 15.1923C22.5 19.6106 18.9183 23.1923 14.5 23.1923C10.0817 23.1923 6.50002 19.6106 6.50002 15.1923C6.50002 10.7741 10.0817 7.19234 14.5 7.19234C18.9183 7.19234 22.5 10.7741 22.5 15.1923Z" stroke="#6733B5" stroke-width="2" stroke-linecap="round" stroke-linejoin="round"/>
</svg>
