<svg width="29" height="25" viewBox="0 0 29 25" fill="none" xmlns="http://www.w3.org/2000/svg">
<path d="M25.1666 23.859V14.5257M14.5 23.859V10.5257M3.83331 23.859L3.83331 18.5257M16.3755 3.89572L23.2668 6.47994M12.8983 4.39361L5.43362 9.99215M26.5809 5.77817C27.3619 6.55922 27.3619 7.82555 26.5809 8.6066C25.7998 9.38764 24.5335 9.38764 23.7524 8.6066C22.9714 7.82555 22.9714 6.55922 23.7524 5.77817C24.5335 4.99712 25.7998 4.99712 26.5809 5.77817ZM5.24753 9.77817C6.02857 10.5592 6.02857 11.8255 5.24753 12.6066C4.46648 13.3876 3.20015 13.3876 2.4191 12.6066C1.63805 11.8255 1.63805 10.5592 2.4191 9.77817C3.20015 8.99712 4.46648 8.99712 5.24753 9.77817ZM15.9142 1.77817C16.6952 2.55922 16.6952 3.82555 15.9142 4.6066C15.1331 5.38764 13.8668 5.38764 13.0858 4.6066C12.3047 3.82555 12.3047 2.55922 13.0858 1.77817C13.8668 0.997121 15.1331 0.997121 15.9142 1.77817Z" stroke="#6733B5" stroke-width="2" stroke-linecap="round" stroke-linejoin="round"/>
</svg>
