<svg width="60" height="66" viewBox="0 0 60 66" fill="none" xmlns="http://www.w3.org/2000/svg">
<g clip-path="url(#clip0_175_730)">
<path d="M21.0061 19.9231C21.0745 19.3057 21.2066 18.6993 21.3395 18.0938C21.7975 16.0033 22.5413 14.0173 23.5437 12.1284C24.469 10.3848 25.5881 8.77667 26.9152 7.31175C28.1867 5.90814 29.6104 4.68439 31.1654 3.60659C32.0416 2.99919 32.9621 2.46829 33.9045 1.9732C33.9913 1.92763 34.0879 1.90077 34.1801 1.86523C34.2013 1.87825 34.2143 1.87201 34.2203 1.84868C34.7116 1.55814 35.2465 1.36472 35.775 1.15963C37.0657 0.658299 38.4026 0.329234 39.772 0.138795C40.3244 0.062022 40.8816 0.00613797 41.4407 0.00478156C42.1637 0.00315387 42.8866 -0.0112241 43.6096 0.0194308C43.8253 0.0286543 43.8274 0.0251277 43.8285 0.249749C43.8301 0.575287 43.8291 0.900825 43.8291 1.22636C43.8291 6.94986 43.8293 12.6734 43.8282 18.3969C43.8282 18.7465 43.8944 18.7446 43.4799 18.7262C42.4897 18.682 41.5186 18.7669 40.587 19.1537C39.6231 19.5539 38.8638 20.1968 38.2643 21.0381C37.5652 22.0187 37.1748 23.1275 36.9426 24.2981C36.8235 24.8989 36.7614 25.5066 36.7147 26.1181C36.6466 27.0117 36.6824 27.905 36.6648 28.7983C36.6618 28.9435 36.7174 28.9947 36.8547 28.9782C36.8902 28.9739 36.9268 28.9777 36.9632 28.9777C39.4769 28.9777 41.9906 28.9779 44.5043 28.9774C44.8382 28.9774 44.8065 29.0034 44.8068 28.6679C44.8073 26.6243 44.807 24.581 44.807 22.5374C44.807 22.4428 44.807 22.3478 44.807 22.1905C45.0075 22.4145 45.1629 22.5863 45.316 22.7604C47.4585 25.1979 49.6003 27.6362 51.7432 30.0736C54.1068 32.7623 56.4711 35.4502 58.835 38.1383C58.9663 38.2875 59.0914 38.4432 59.2322 38.5832C59.3407 38.6912 59.3247 38.7647 59.2281 38.8724C58.7278 39.4315 58.2352 39.9974 57.7398 40.5611C55.8061 42.7609 53.8727 44.961 51.9385 47.1606C50.8818 48.3621 49.8247 49.5631 48.7669 50.7637C48.7376 50.7968 48.7013 50.824 48.6682 50.8538C48.372 51.2417 48.035 51.5936 47.7146 51.9606C46.7988 53.0091 45.8764 54.0519 44.9565 55.0967C44.9226 55.1352 44.8862 55.1715 44.8068 55.2562C44.8068 55.1032 44.8068 55.0085 44.8068 54.9138C44.8068 52.6171 44.8076 50.3205 44.8059 48.0238C44.8057 47.6589 44.8564 47.6972 44.4687 47.6969C41.9732 47.6958 39.4777 47.6964 36.9822 47.6964C36.9461 47.6964 36.9097 47.6958 36.8737 47.6966C36.6716 47.7012 36.671 47.7012 36.6672 47.9085C36.6659 47.9899 36.667 48.0713 36.667 48.1527C36.667 53.9847 36.6672 59.8167 36.6661 65.6487C36.6661 66.0391 36.7237 65.9987 36.3254 65.9989C31.1895 65.9997 26.0539 65.9995 20.918 65.9995C20.909 65.9995 20.8998 65.9995 20.8908 65.9995C20.526 65.997 20.5705 66.0288 20.5705 65.6823C20.5699 57.3005 20.5699 48.9188 20.5699 40.537C20.5699 40.42 20.5699 40.3031 20.5699 40.1892C20.4636 40.1588 20.3979 40.2188 20.3306 40.2565C20.0472 40.4157 19.7634 40.575 19.4861 40.7448C17.9898 41.6614 16.4521 42.504 14.8556 43.2311C13.413 43.8878 11.9136 44.3843 10.3526 44.6832C9.45985 44.8541 8.56055 44.8889 7.65392 44.8449C6.61139 44.7945 5.5892 44.6298 4.58437 44.3506C4.02472 44.1949 3.49572 43.9635 2.97893 43.7026C2.40625 43.4134 1.83412 43.1231 1.26171 42.8336C0.87758 42.6394 0.541733 42.3841 0.273978 42.0445C0.223791 41.9807 0.178758 41.9124 0.137795 41.8421C-0.171737 41.3101 0.0550538 40.8454 0.669236 40.7575C0.906064 40.7236 1.13774 40.7521 1.361 40.8427C1.53761 40.9146 1.71069 40.9954 1.86098 41.1121C2.45345 41.5714 3.12678 41.8798 3.81529 42.1565C4.79624 42.5507 5.78479 42.9264 6.8295 43.122C8.30608 43.3984 9.77887 43.3716 11.2419 43.0317C11.7543 42.9126 12.2323 42.692 12.7049 42.4644C13.8801 41.8983 14.9905 41.2214 16.0707 40.493C17.5394 39.5026 18.9688 38.4546 20.4508 37.4834C20.5363 37.4275 20.5821 37.3687 20.5713 37.2659C20.5656 37.2121 20.5702 37.1573 20.5702 37.1031C20.5702 33.1337 20.5639 29.1643 20.5751 25.1949C20.5775 24.3214 20.6234 23.4468 20.6855 22.5751C20.7392 21.8223 20.8219 21.0706 20.934 20.323C20.9513 20.2074 20.9766 20.0929 20.9983 19.9782C21.0094 19.9619 21.055 19.9497 21.0061 19.9231Z" fill="#6733B5"/>
<path d="M34.2201 1.8487C34.2361 1.86823 34.254 1.88641 34.266 1.90811C34.2684 1.91245 34.2467 1.93985 34.2361 1.93958C34.1892 1.93876 34.1859 1.89997 34.1797 1.86498C34.1897 1.8506 34.203 1.84517 34.2201 1.8487Z" fill="#6733B5"/>
<path d="M21.006 19.9231C21.0309 19.9182 21.0559 19.9133 21.0811 19.9084C21.0944 19.9809 21.0377 19.97 20.9976 19.979C21.0003 19.9603 21.0033 19.9418 21.006 19.9231Z" fill="#6733B5"/>
<path d="M30.1401 44.8504C29.8224 44.7809 29.4966 44.8016 29.1757 44.7571C28.4885 44.6619 27.8073 44.5425 27.141 44.3461C26.9091 44.2777 26.8806 44.2145 26.9848 43.9991C27.0716 43.8198 27.1961 43.6646 27.3155 43.5067C27.6033 43.1261 27.8949 42.7485 28.1331 42.3332C28.2815 42.0744 28.406 41.8047 28.4907 41.5193C28.8078 40.4469 28.3746 39.1293 27.4937 38.4332C27.2032 38.2037 26.8763 38.1147 26.5174 38.0971C25.5131 38.048 24.5476 38.239 23.6038 38.5653C22.637 38.8996 21.7355 39.3643 20.8864 39.9326C20.8066 39.986 20.725 40.037 20.6425 40.0902C20.5844 40.0107 20.6067 39.9375 20.6067 39.8697C20.607 39.1312 20.6135 38.3928 20.6091 37.6544C20.6083 37.5141 20.6387 37.4246 20.77 37.3511C22.0523 36.6335 23.253 35.789 24.4635 34.9597C25.4982 34.2506 26.5765 33.6199 27.7479 33.1601C28.3775 32.9129 29.0205 32.7111 29.6938 32.621C31.1378 32.4281 32.2721 32.9368 33.0862 34.1413C33.348 34.5284 33.4388 34.9852 33.5284 35.4358C33.7736 36.668 33.6749 37.8893 33.4041 39.1044C33.3968 39.1377 33.3792 39.1689 33.4152 39.2343C33.9673 38.1421 34.2481 37.0166 34.1485 35.8083C34.0506 34.6225 33.7161 33.52 32.9329 32.5364C33.3705 32.6449 33.7514 32.7415 34.1336 32.834C36.0399 33.2954 37.9625 33.6741 39.8959 34.0024C40.7021 34.1394 41.5065 34.287 42.2927 34.5227C42.9671 34.7251 43.4774 35.1125 43.7953 35.7451C43.8113 35.7771 43.8319 35.8067 43.852 35.8362C43.8558 35.8417 43.8664 35.8425 43.9014 35.8561C43.9263 35.712 43.9168 35.5753 43.8867 35.4404C43.8056 35.075 43.683 34.7321 43.3775 34.4828C43.2847 34.4071 43.3056 34.345 43.4228 34.322C43.5373 34.2994 43.6548 34.2799 43.7709 34.2799C44.4632 34.281 45.1254 34.1104 45.7849 33.9286C46.3831 33.7637 46.9715 33.564 47.5767 33.424C47.6019 33.418 47.6247 33.4015 47.6548 33.3866C47.6092 33.328 47.5599 33.2772 47.5254 33.2178C47.4736 33.128 47.4538 33.0274 47.52 32.9373C47.5941 32.8364 47.6952 32.8644 47.7894 32.9053C48.1686 33.0705 48.5633 33.2037 48.9201 33.4156C49.3067 33.6456 49.6848 33.8901 50.0622 34.1353C50.4056 34.3586 50.7027 34.6326 50.9088 34.992C51.0903 35.3086 51.1831 35.6398 51.0252 35.9955C50.971 36.1176 51.0084 36.2055 51.1028 36.2787C51.1592 36.3227 51.2227 36.3579 51.2838 36.3956C51.81 36.7195 51.8844 37.3611 51.4482 37.7984C51.1888 38.0583 50.8635 38.1478 50.5122 38.1459C49.8717 38.143 49.235 38.0808 48.6122 37.9292C47.8409 37.7415 47.0954 37.8351 46.3562 38.086C45.7659 38.2862 45.2 38.5366 44.6645 38.8562C44.1651 39.154 43.7188 39.5173 43.3442 39.9605C42.6312 40.8045 41.7474 41.401 40.739 41.8367C39.4746 42.3831 38.1787 42.8475 36.8977 43.351C36.1858 43.6307 35.4775 43.9196 34.8058 44.2894C34.6176 44.393 34.4201 44.4828 34.2804 44.693C33.9223 44.151 33.4652 43.7471 32.9345 43.4462C32.9541 43.3521 33.0091 43.3318 33.0572 43.3128C33.3526 43.1961 33.4733 42.9509 33.5213 42.6644C33.6 42.1964 33.5764 41.7312 33.4302 41.2771C33.3724 41.0975 33.3103 40.9184 33.2386 40.744C33.1681 40.572 33.0976 40.5633 32.9636 40.6968C32.9381 40.722 32.9139 40.7497 32.8947 40.7798C32.5138 41.3723 32.0567 41.904 31.5874 42.4262C31.5803 42.4563 31.5616 42.4742 31.5312 42.4799C31.2048 42.7306 30.9021 43.0144 30.4946 43.1785C30.5679 43.3019 30.6764 43.3206 30.7713 43.3535C31.2388 43.5143 31.7086 43.669 32.1755 43.8315C33.4256 44.2666 34.4136 45.0758 35.3034 46.0261C35.6495 46.3956 35.9352 46.8104 36.2249 47.2225C36.2496 47.2575 36.283 47.2925 36.2689 47.3649C36.1682 47.3541 36.1026 47.2789 36.0288 47.2263C35.3308 46.729 34.5997 46.289 33.8062 45.9605C33.632 45.8883 33.4405 45.8549 33.2736 45.7706C32.9636 45.614 32.6817 45.6889 32.3985 45.8289C31.8095 46.1203 31.2477 46.461 30.6742 46.7806C28.5715 47.9528 26.7604 49.4934 25.0853 51.2054C25.0286 51.2632 24.974 51.3232 24.9171 51.3804C24.9049 51.3926 24.8859 51.3975 24.8699 51.4059C24.894 51.0744 26.596 48.7555 27.4367 47.8478C28.4405 46.7637 29.5698 45.8235 30.799 44.9546C30.6229 44.8355 30.4547 44.8512 30.2885 44.8577C30.2358 44.8987 30.1865 44.9025 30.1401 44.8504Z" fill="white"/>
<path d="M30.1792 44.8232C30.2294 44.807 30.2785 44.8121 30.327 44.8308C30.2372 45.0126 30.2372 45.0126 29.9746 44.8655C30.0425 44.8132 30.1165 44.8382 30.1792 44.8232Z" fill="#6733B5"/>
<path d="M20.8767 22.0179C20.8693 22.0295 20.8604 22.0621 20.8441 22.0664C20.8012 22.0776 20.7877 22.0437 20.7871 22.0076C20.7866 21.9799 20.8031 21.9593 20.8314 21.9587C20.8598 21.9585 20.875 21.978 20.8767 22.0179Z" fill="#6733B5"/>
<path d="M31.5752 42.4434C31.5825 42.4133 31.6015 42.3956 31.6316 42.3894C31.6617 42.4098 31.6848 42.438 31.6533 42.4681C31.6224 42.4982 31.5947 42.4738 31.5752 42.4434Z" fill="#6733B5"/>
<path d="M48.6683 50.8539C48.6349 50.8501 48.5986 50.8509 48.5823 50.814C48.5796 50.8078 48.5969 50.7834 48.6015 50.7842C48.6387 50.7918 48.6548 50.8225 48.6683 50.8539Z" fill="#6733B5"/>
</g>
<defs>
<clipPath id="clip0_175_730">
<rect width="60" height="66" fill="white"/>
</clipPath>
</defs>
</svg>
