<svg width="819" height="206" viewBox="0 0 819 206" fill="none" xmlns="http://www.w3.org/2000/svg">
<path d="M811.898 61.1627C810.924 60.5652 809.928 60.0064 809.028 59.31C807.537 58.1493 806.945 56.7565 807.8 54.8221C810.302 49.1864 808.834 43.9376 805.956 38.921C802.689 33.2208 797.991 28.8834 792.551 25.3454C786.571 21.4594 780.577 17.5862 774.455 13.9409C768.813 10.5792 762.556 8.47284 756.546 5.85491C755.055 5.2058 753.452 4.76302 752.283 6.36216C751.234 7.78935 751.548 9.38422 752.365 10.8071C752.905 11.7485 753.692 12.5566 754.418 13.4809C753.939 13.7131 753.579 13.9796 753.174 14.0742C743.591 16.2966 734.271 19.4562 724.796 22.0698C714.349 24.95 703.864 27.6582 692.894 27.6367C691.055 27.6324 689.194 27.9462 687.381 28.303C685.525 28.6684 685.194 29.6485 686.664 30.8522C691.502 34.807 693.44 40.2364 694.729 46.0268C695.201 48.1633 695.357 50.3299 694.961 52.6125C694.406 52.3975 694.239 52.3846 694.179 52.2987C693.861 51.8258 693.534 51.3573 693.281 50.8543C688.245 40.8296 680.162 34.6867 669.48 31.4841C657.027 27.7485 644.285 25.4056 631.515 23.2391C600.89 18.0376 570.432 12.0322 540.241 4.72434C534.186 3.24986 528.149 1.7195 521.222 0C533.627 15.5873 538.93 33.0574 540.478 51.8473C542.054 70.994 537.611 88.8296 528.862 106.137C528.291 105.101 528.566 104.606 528.686 104.077C532.975 84.8229 534.535 65.4701 530.654 45.9451C529.232 38.8006 527.792 31.5658 523.65 25.4314C510.754 6.34496 492.788 -1.7195 469.915 1.33691C459.249 2.7641 449.066 5.96238 439.092 9.87851C420.541 17.1649 403.461 27.1596 387.068 38.3965C368.212 51.3229 349.502 64.4728 329.568 75.7181C329.564 75.7181 329.564 75.7144 329.564 75.7144C329.56 75.7181 329.543 75.7271 329.538 75.7354C329.212 75.9205 328.89 76.1049 328.563 76.2901C328.4 76.38 328.253 76.4752 328.107 76.5697C326.621 77.3515 324.485 78.392 323.978 78.7278C300.503 94.1173 277.823 110.397 254.559 126.087C237.448 137.629 219.86 148.355 201.245 157.326C193.759 160.932 186.188 164.428 178.071 166.315C154.893 171.701 131.569 172.126 108.179 167.746C91.6315 164.647 75.9724 158.697 60.4345 152.447C49.5286 148.062 38.8633 143.175 29.4784 135.897C27.0979 134.053 24.3564 132.767 21.5589 131.628C18.0225 130.188 14.3528 129.741 10.6014 130.279C0.868571 131.671 -2.71948 139.035 2.18347 147.465C2.82803 148.578 3.54564 149.661 4.3406 150.672C8.58184 156.054 13.9016 160.094 19.9862 163.177C29.0531 167.764 38.1156 172.363 47.1866 176.945C55.3769 181.081 63.7518 184.747 72.621 187.215C88.5376 191.643 104.729 194.248 121.242 195.048C135.603 195.744 149.848 195.194 163.989 192.486C188.711 187.748 212.465 179.882 235.317 169.474C260.609 157.953 284.961 144.601 308.663 130.076C313.055 127.385 317.549 124.857 322.04 122.339C322.693 121.968 324.657 120.868 326.534 119.665C326.539 119.673 326.548 119.682 326.552 119.69C327.862 118.843 329.152 118.04 330.415 117.193C343.865 108.182 358.144 100.823 373.459 95.5273C388.408 90.3558 403.701 87.3296 419.609 88.1077C425.29 88.3865 430.472 89.7966 435.074 93.4337C449.031 104.464 455.894 125.343 450.866 142.336C449.53 146.858 447.557 151.131 445.203 155.232C441.43 161.814 436.81 167.798 432.251 173.829C430.36 176.331 428.393 178.79 427.013 181.631C425.359 185.049 425.81 186.046 429.488 187.129C440.038 190.246 450.827 192.137 461.716 193.642C466.327 194.282 471.003 194.076 475.583 194.85C475.179 194.919 474.771 195.056 474.38 195.361C478.324 197.571 478.526 197.678 479.755 195.219C482.247 195.112 484.774 194.987 487.413 196.771C467.939 210.54 450.054 225.44 434.155 242.617C420.838 257.005 393.878 293.747 393.496 299C393.75 298.871 394.05 298.789 394.243 298.596C395.15 297.689 396.014 296.739 396.908 295.823C423.446 268.694 452.134 244.281 485.436 225.706C494.52 220.643 503.419 215.243 512.748 210.626C517.234 208.408 521.699 207.217 526.611 209.702C529.254 211.039 532.291 211.572 535.046 212.711C547.619 217.917 559.195 224.89 570.252 232.769C571.416 233.599 572.456 234.79 574.05 234.966C574.274 233.818 573.745 233.264 573.354 232.709C568.765 226.179 564.24 219.607 558.757 213.751C544.662 198.697 529.012 185.87 509.212 178.975C501.817 176.4 494.374 173.949 486.97 171.4C485.466 170.88 483.748 170.587 482.587 168.627C489.042 166.027 493.841 161.53 499.006 157.558C499.363 157.494 499.617 157.318 499.771 157.043C500.076 157.489 500.493 157.816 500.962 157.369C501.455 156.892 501.09 156.444 500.618 156.122C500.519 156.144 500.429 156.174 500.343 156.213C507.618 148.097 514.691 139.821 520.603 130.622C520.908 130.145 521.291 129.711 521.694 129.306C523.817 127.192 524.935 127.325 526.052 130.054C527.186 132.819 528.166 135.656 529.086 138.502C531.406 145.702 531.78 153.07 530.53 160.486C529.765 165.025 527.852 168.916 523.177 170.76C522.417 171.06 521.548 171.387 521.235 172.874C529.64 177.642 536.881 184.047 542.552 192.632C544.766 189.3 547.898 187.882 550.876 186.235C561.515 180.372 572.736 175.798 584.01 171.365C604.301 163.387 624.829 156.028 644.857 147.37C660.825 140.466 674.829 131.013 686.122 117.64C692.057 110.615 699.125 104.86 707.036 100.14C715.518 95.0753 724.486 91.1076 733.832 87.9353C745.542 83.9593 757.348 82.4759 769.57 85.4511C779.431 87.8536 789.516 88.8378 799.662 88.8858C805.229 88.9113 810.377 87.4967 814.491 83.3784C821.407 76.4617 820.231 66.2954 811.898 61.1627Z" fill="url(#paint0_linear_175_823)"/>
<defs>
<linearGradient id="paint0_linear_175_823" x1="409.501" y1="0" x2="409.501" y2="299" gradientUnits="userSpaceOnUse">
<stop stop-color="#713DBF"/>
<stop offset="1" stop-color="#6733B5"/>
</linearGradient>
</defs>
</svg>
